<svg width="257" height="323" viewBox="0 0 257 323" fill="none" xmlns="http://www.w3.org/2000/svg">
<g filter="url(#filter0_d)">
<path d="M192.333 152.385C178.946 145.256 158.396 138.562 130.516 131.868C128.273 131.433 126.265 130.764 124.257 130.295C76.0612 122.698 37.9063 93.4792 28.5349 56.4287C27.8655 57.3324 27.4304 58.0018 26.761 58.872C18.4941 71.5903 14.4778 85.2123 14.4778 99.4702C14.4778 121.995 23.1798 140.972 40.5838 156.602C53.0679 167.747 74.4882 177.119 105.28 184.716C129.177 190.774 144.573 194.791 151.267 197.234C161.073 200.815 168.001 204.831 171.783 209.517C175.8 214.203 177.573 219.993 177.573 226.687C177.573 237.163 172.888 246.333 163.516 254.132C154.145 261.93 140.322 265.946 121.78 265.946C104.376 265.946 90.5534 261.495 80.2783 252.793C70.0033 244.091 63.1421 230.268 59.7952 211.525L4.00195 216.88C7.78398 248.576 19.1635 272.874 38.5757 289.408C57.7536 305.908 85.4326 314.41 121.345 314.41C146.112 314.41 166.629 310.828 183.163 304.135C199.663 297.206 212.381 286.731 221.552 272.439C230.488 258.148 235.174 242.986 235.174 226.687C235.174 208.848 231.392 193.653 223.794 181.403C216.197 169.12 205.721 159.547 192.333 152.385Z" fill="white"/>
<path d="M143.458 113.566C144.362 113.566 145.232 113.566 146.136 113.566C104.4 104.194 73.4072 69.3865 73.4072 27.6503C73.4072 24.7385 73.6415 22.061 73.8423 19.1826C59.5509 26.5458 48.4057 35.0136 40.373 42.6111C45.7281 82.5734 89.9075 113.566 143.458 113.566Z" fill="url(#paint0_linear)"/>
<path d="M196.352 106.868C197.256 106.868 198.126 106.868 199.03 106.868C157.293 97.4968 126.301 62.6888 126.301 20.9526C126.301 14.4931 127.205 8.00005 128.543 1.97559C116.26 3.74946 105.115 6.42699 95.3084 10.0082C93.7354 15.5976 92.6309 21.622 92.6309 27.6465C92.5974 71.3908 139.22 106.868 196.352 106.868Z" fill="url(#paint1_linear)"/>
<path d="M180.272 14.4922C180.272 10.0408 180.707 5.55589 181.376 1.33877C173.109 0.4351 165.077 0 157.279 0C154.835 0 152.593 2.799e-07 150.35 0.234285C147.907 6.92813 146.568 13.8228 146.568 21.186C146.568 64.9303 193.191 100.609 250.323 100.609C251.227 100.609 252.097 100.609 253.001 100.609C211.264 91.0363 180.272 55.994 180.272 14.4922Z" fill="url(#paint2_linear)"/>
</g>
<defs>
<filter id="filter0_d" x="0.00195312" y="0" width="256.999" height="322.41" filterUnits="userSpaceOnUse" color-interpolation-filters="sRGB">
<feFlood flood-opacity="0" result="BackgroundImageFix"/>
<feColorMatrix in="SourceAlpha" type="matrix" values="0 0 0 0 0 0 0 0 0 0 0 0 0 0 0 0 0 0 127 0"/>
<feOffset dy="4"/>
<feGaussianBlur stdDeviation="2"/>
<feColorMatrix type="matrix" values="0 0 0 0 0 0 0 0 0 0 0 0 0 0 0 0 0 0 0.25 0"/>
<feBlend mode="normal" in2="BackgroundImageFix" result="effect1_dropShadow"/>
<feBlend mode="normal" in="SourceGraphic" in2="effect1_dropShadow" result="shape"/>
</filter>
<linearGradient id="paint0_linear" x1="55.2213" y1="78.5522" x2="85.9583" y2="68.3065" gradientUnits="userSpaceOnUse">
<stop stop-color="#E74B25"/>
<stop offset="1" stop-color="#AA2795"/>
</linearGradient>
<linearGradient id="paint1_linear" x1="109.88" y1="64.8905" x2="137.202" y2="54.6448" gradientUnits="userSpaceOnUse">
<stop stop-color="#7B2992"/>
<stop offset="1" stop-color="#E50D89"/>
</linearGradient>
<linearGradient id="paint2_linear" x1="154.266" y1="58.0589" x2="191.833" y2="37.5675" gradientUnits="userSpaceOnUse">
<stop stop-color="#E50D89"/>
<stop offset="1" stop-color="#82CEF2"/>
</linearGradient>
</defs>
</svg>
